<svg version="1.0" xmlns="http://www.w3.org/2000/svg"
 width="500.000000pt" height="500.000000pt" viewBox="0 0 500.000000 500.000000"
 preserveAspectRatio="xMidYMid meet">

<g transform="translate(0.000000,500.000000) scale(0.100000,-0.100000)"
fill="currentColor" stroke="none">
        <path
            d="M2233 4985 c-83 -23 -152 -63 -214 -124 -93 -93 -138 -212 -139 -362 l0 -66 -62 -23 c-35 -12 -105 -40 -155 -62 l-93 -40 -67 61 c-38 36 -98 77 -142 99 -73 36 -77 37 -190 37 -114 0 -118 -1 -196 -38 -72 -34 -96 -55 -242 -200 -145 -146 -166 -170 -200 -242 -37 -78 -38 -82 -38 -196 0 -113 1 -117 37 -190 22 -44 63 -104 99 -142 l61 -67 -40 -93 c-22 -50 -50 -120 -62 -154 l-23 -63 -71 0 c-147 0 -264 -46 -357 -139 -115 -116 -139 -198 -139 -481 0 -283 24 -367 139 -480 96 -95 212 -139 362 -140 l66 0 23 -62 c12 -35 40 -105 62 -155 l40 -93 -61 -67 c-36 -38 -77 -98 -99 -142 -36 -73 -37 -77 -37 -190 0 -114 1 -118 38 -196 34 -72 55 -96 200 -242 146 -145 170 -166 242 -200 78 -37 82 -38 196 -38 113 0 117 1 190 37 44 22 104 63 142 99 l67 61 93 -40 c50 -22 120 -50 155 -62 l62 -23 0 -66 c1 -150 46 -269 139 -362 116 -115 198 -139 481 -139 283 0 365 24 481 139 93 93 138 212 139 363 l0 66 38 12 c20 7 90 34 155 62 l118 50 53 -51 c120 -113 231 -157 377 -149 75 5 100 11 166 42 70 33 96 55 240 199 145 146 166 170 200 242 37 78 38 82 38 195 0 112 -1 117 -36 190 -22 46 -60 101 -99 143 l-62 67 40 93 c22 50 50 120 62 155 l23 62 76 1 c237 1 419 138 476 356 21 81 21 445 0 526 -23 87 -61 155 -124 218 -93 93 -210 139 -357 139 l-71 0 -23 63 c-12 34 -40 104 -62 155 l-40 93 50 53 c114 120 158 231 150 377 -5 75 -11 100 -42 165 -32 67 -56 97 -194 236 -142 144 -165 164 -241 201 l-84 42 -116 0 c-112 0 -118 -1 -191 -36 -47 -22 -101 -60 -142 -98 l-68 -63 -117 50 c-65 28 -135 55 -155 62 l-38 12 0 66 c-1 245 -136 429 -355 487 -80 20 -455 20 -532 0z m494 -294 c26 -12 52 -35 70 -62 27 -41 28 -47 31 -193 3 -161 13 -201 56 -229 12 -8 75 -31 141 -52 66 -21 181 -69 255 -107 108 -54 144 -68 180 -68 57 0 72 10 190 126 98 96 127 114 186 114 55 0 90 -24 213 -144 131 -128 171 -183 171 -237 0 -62 -17 -90 -114 -189 -116 -118 -126 -133 -126 -190 0 -36 14 -72 68 -180 38 -74 86 -189 107 -255 60 -190 67 -195 238 -195 195 0 261 -23 298 -104 16 -35 19 -67 19 -226 0 -159 -3 -191 -19 -226 -37 -81 -105 -106 -291 -103 -175 2 -189 -9 -252 -211 -18 -58 -63 -166 -100 -240 -54 -107 -68 -144 -68 -180 0 -57 10 -72 126 -190 120 -123 137 -167 94 -255 -26 -53 -255 -280 -303 -300 -85 -35 -127 -19 -247 99 -118 116 -133 126 -190 126 -36 0 -72 -14 -180 -68 -74 -38 -182 -83 -240 -101 -58 -18 -120 -40 -139 -49 -59 -29 -65 -48 -72 -228 -5 -156 -6 -164 -33 -204 -47 -71 -80 -80 -296 -80 -206 0 -247 10 -288 67 -29 41 -32 60 -35 218 -4 204 -8 209 -217 276 -58 18 -166 64 -240 101 -107 54 -144 68 -180 68 -57 0 -72 -10 -190 -126 -98 -96 -127 -114 -186 -114 -55 0 -90 24 -213 144 -131 128 -171 183 -171 237 0 62 17 90 114 189 116 118 126 133 126 190 0 36 -14 73 -68 180 -37 74 -85 189 -106 255 -43 133 -62 167 -103 183 -16 6 -96 12 -179 14 -146 4 -154 5 -194 32 -71 47 -80 80 -80 296 0 159 3 191 19 226 37 81 99 104 284 104 187 0 191 3 252 195 21 66 69 181 107 255 54 108 68 144 68 180 0 57 -10 72 -126 190 -96 98 -114 127 -114 186 0 55 24 90 144 213 128 131 183 171 237 171 62 0 90 -17 189 -114 118 -116 133 -126 190 -126 36 0 73 14 180 68 74 37 189 85 255 107 196 63 196 63 204 290 6 148 8 163 30 194 44 61 82 71 291 71 160 0 191 -3 227 -19z" />
        <path
            d="M2366 3579 c-233 -30 -442 -130 -613 -292 -102 -97 -165 -183 -228 -312 -91 -189 -128 -387 -106 -580 29 -254 125 -464 294 -642 94 -99 181 -164 302 -223 685 -339 1483 102 1565 865 21 191 -14 392 -99 570 -203 424 -654 673 -1115 614z m289 -300 c128 -22 290 -107 396 -206 98 -92 192 -259 225 -400 21 -89 20 -263 -2 -350 -49 -200 -165 -369 -328 -477 -148 -99 -278 -138 -458 -137 -362 1 -681 259 -764 618 -20 86 -20 260 0 346 34 145 129 312 231 405 192 176 438 246 700 201z" />
    </g>
</svg>